<?xml version="1.0" encoding="utf-8"?>
<svg viewBox="-44.3424 16.0699 540.8765 435.8833" width="540.8765" height="435.8833" xmlns="http://www.w3.org/2000/svg" xmlns:xlink="http://www.w3.org/1999/xlink">
  <defs>
    <linearGradient id="linear-gradient" x1="0.579" y1="0.236" x2="0.405" y2="0.505" gradientUnits="objectBoundingBox">
      <stop offset="0" stop-color="#f4d35e"/>
      <stop offset="1" stop-color="#ee964b"/>
    </linearGradient>
    <linearGradient id="linear-gradient-2" x1="0.579" y1="0.764" x2="0.405" y2="0.495" xlink:href="#linear-gradient"/>
  </defs>
  <g id="Group_3316" data-name="Group 3316" transform="matrix(1, 0, 0, 1, -801.1119480133057, -362.1321105957031)">
    <g id="Group_3315" data-name="Group 3315" transform="translate(756.767 383.52)" opacity="0.7">
      <path id="Path_3587" data-name="Path 3587" d="M.005,148.594c.083-2.625,4.325-6.565,4.325-6.565L134.9,6.511s2.074-2.154,4.536-4.7,9.311-3.064,10.907,2.889c.462,1.723.6,2.132,1.167,4.631,3.254,14.433,6.263,38.181-1.855,57.911-12.991,31.573-34.5,39.513-52.362,47.71-24.37,11.185-59.726,25.881-84.886,36.163-2.653,1.084-6.018,2.856-8.809,2.252S-.078,151.219.005,148.594Z" transform="translate(318.568 8.105) rotate(-3)" fill="#bf671c"/>
      <path id="Path_3588" data-name="Path 3588" d="M.005,148.594c.083-2.625,4.325-6.565,4.325-6.565L134.9,6.511s2.074-2.154,4.536-4.7,9.311-3.064,10.907,2.889c.462,1.723.6,2.132,1.167,4.631,3.254,14.433,6.263,38.181-1.855,57.911-12.991,31.573-34.5,39.513-52.362,47.71-24.37,11.185-59.726,25.881-84.886,36.163-2.653,1.084-6.018,2.856-8.809,2.252S-.078,151.219.005,148.594Z" transform="matrix(0.927, 0.375, -0.375, 0.927, 382.147, 45.727)" fill="#bf671c"/>
      <path id="Path_3589" data-name="Path 3589" d="M.005,148.594c.083-2.625,4.325-6.565,4.325-6.565L134.9,6.511s2.074-2.154,4.536-4.7,9.311-3.064,10.907,2.889c.462,1.723.6,2.132,1.167,4.631,3.254,14.433,6.263,38.181-1.855,57.911-12.991,31.573-34.5,39.513-52.362,47.71-24.37,11.185-59.726,25.881-84.886,36.163-2.653,1.084-6.018,2.856-8.809,2.252S-.078,151.219.005,148.594Z" transform="translate(433.258 106.067) rotate(46)" fill="#bf671c"/>
      <path id="Path_3590" data-name="Path 3590" d="M.005,148.594c.083-2.625,4.325-6.565,4.325-6.565L134.9,6.511s2.074-2.154,4.536-4.7,9.311-3.064,10.907,2.889c.462,1.723.6,2.132,1.167,4.631,3.254,14.433,6.263,38.181-1.855,57.911-12.991,31.573-34.5,39.513-52.362,47.71-24.37,11.185-59.726,25.881-84.886,36.163-2.653,1.084-6.018,2.856-8.809,2.252S-.078,151.219.005,148.594Z" transform="translate(456.765 187.847) rotate(73)" fill="#bf671c"/>
      <path id="Path_3591" data-name="Path 3591" d="M.005,148.594c.083-2.625,4.325-6.565,4.325-6.565L134.9,6.511s2.074-2.154,4.536-4.7,9.311-3.064,10.907,2.889c.462,1.723.6,2.132,1.167,4.631,3.254,14.433,6.263,38.181-1.855,57.911-12.991,31.573-34.5,39.513-52.362,47.71-24.37,11.185-59.726,25.881-84.886,36.163-2.653,1.084-6.018,2.856-8.809,2.252S-.078,151.219.005,148.594Z" transform="matrix(-0.208, 0.978, -0.978, -0.208, 440.462, 279.103)" fill="#bf671c"/>
      <path id="Path_3592" data-name="Path 3592" d="M.005,4.892C.088,7.516,4.33,11.456,4.33,11.456L134.9,146.975s2.074,2.153,4.536,4.7,9.311,3.064,10.907-2.889c.462-1.723.6-2.132,1.167-4.631,3.254-14.433,6.263-38.181-1.855-57.911-12.991-31.573-34.5-39.513-52.362-47.71C72.927,27.353,37.571,12.657,12.411,2.374,9.757,1.29,6.393-.482,3.6.122S-.078,2.267.005,4.892Z" transform="translate(214.235 161.381) rotate(-177)" fill="#bf671c"/>
      <path id="Path_3593" data-name="Path 3593" d="M.005,4.892C.088,7.516,4.33,11.456,4.33,11.456L134.9,146.975s2.074,2.154,4.536,4.7,9.311,3.064,10.907-2.889c.462-1.723.6-2.132,1.167-4.631,3.254-14.433,6.263-38.181-1.855-57.911-12.991-31.573-34.5-39.513-52.362-47.71C72.927,27.353,37.571,12.657,12.411,2.374,9.757,1.29,6.393-.482,3.6.122S-.078,2.267.005,4.892Z" transform="translate(216.186 188.037) rotate(158)" fill="#bf671c"/>
      <path id="Path_3594" data-name="Path 3594" d="M.005,4.892C.088,7.516,4.33,11.456,4.33,11.456L134.9,146.976s2.074,2.154,4.536,4.7,9.311,3.064,10.907-2.889c.462-1.723.6-2.132,1.167-4.631,3.254-14.433,6.263-38.181-1.855-57.911-12.991-31.573-34.5-39.513-52.362-47.71C72.927,27.353,37.571,12.657,12.411,2.374,9.757,1.29,6.393-.482,3.6.122S-.078,2.267.005,4.892Z" transform="matrix(-0.695, 0.719, -0.719, -0.695, 217.985, 212.689)" fill="#bf671c"/>
      <path id="Path_3595" data-name="Path 3595" d="M.005,4.892C.088,7.516,4.33,11.456,4.33,11.456L134.9,146.976s2.074,2.154,4.536,4.7,9.311,3.064,10.907-2.889c.462-1.723.6-2.132,1.167-4.631,3.254-14.433,6.263-38.181-1.855-57.911-12.991-31.573-34.5-39.513-52.362-47.71C72.927,27.353,37.571,12.657,12.411,2.374,9.757,1.29,6.393-.482,3.6.122S-.078,2.267.005,4.892Z" transform="translate(230.849 232.72) rotate(107)" fill="#bf671c"/>
      <path id="Path_3596" data-name="Path 3596" d="M.005,4.892C.088,7.516,4.33,11.456,4.33,11.456L134.9,146.976s2.074,2.153,4.536,4.7,9.311,3.064,10.907-2.889c.462-1.723.6-2.132,1.167-4.631,3.254-14.433,6.263-38.181-1.855-57.911-12.991-31.573-34.5-39.513-52.362-47.71C72.926,27.353,37.571,12.657,12.411,2.374,9.757,1.29,6.393-.482,3.6.122S-.078,2.267.005,4.892Z" transform="matrix(0.208, 0.978, -0.978, 0.208, 250.506, 247.19)" fill="#bf671c"/>
    </g>
    <g id="Group_3313" data-name="Group 3313" transform="translate(756.765 378.198)">
      <path id="Path_3592-2" data-name="Path 3592" d="M.005,4.892C.088,7.516,4.33,11.456,4.33,11.456L134.9,146.975s2.074,2.153,4.536,4.7,9.311,3.064,10.907-2.889c.462-1.723.6-2.132,1.167-4.631,3.254-14.433,6.263-38.181-1.855-57.911-12.991-31.573-34.5-39.513-52.362-47.71C72.927,27.353,37.571,12.657,12.411,2.374,9.757,1.29,6.393-.482,3.6.122S-.078,2.267.005,4.892Z" transform="translate(214.236 161.38) rotate(-177)" fill="url(#linear-gradient)"/>
      <path id="Path_3598" data-name="Path 3598" d="M.005,148.594c.083-2.625,4.325-6.565,4.325-6.565L134.9,6.511s2.074-2.153,4.536-4.7,9.311-3.064,10.907,2.889c.462,1.723.6,2.132,1.167,4.631,3.254,14.433,6.263,38.181-1.855,57.911-12.991,31.573-34.5,39.513-52.362,47.71-24.37,11.185-59.726,25.881-84.886,36.163-2.653,1.084-6.018,2.856-8.809,2.252S-.078,151.219.005,148.594Z" transform="translate(318.569 8.105) rotate(-3)" fill="url(#linear-gradient-2)"/>
      <path id="Path_3599" data-name="Path 3599" d="M.005,4.892C.088,7.516,4.33,11.456,4.33,11.456L134.9,146.975s2.074,2.153,4.536,4.7,9.311,3.064,10.907-2.889c.462-1.723.6-2.132,1.167-4.631,3.254-14.433,6.263-38.181-1.855-57.911-12.991-31.573-34.5-39.513-52.362-47.71C72.927,27.353,37.571,12.657,12.411,2.374,9.757,1.29,6.393-.482,3.6.122S-.078,2.267.005,4.892Z" transform="matrix(-0.927, 0.375, -0.375, -0.927, 216.187, 188.037)" fill="url(#linear-gradient)"/>
      <path id="Path_3600" data-name="Path 3600" d="M.005,148.594c.083-2.625,4.325-6.564,4.325-6.564L134.9,6.511s2.074-2.153,4.536-4.7,9.311-3.064,10.907,2.889c.462,1.723.6,2.132,1.167,4.631,3.254,14.433,6.263,38.181-1.855,57.911-12.991,31.573-34.5,39.513-52.362,47.71-24.37,11.185-59.725,25.881-84.886,36.163-2.653,1.084-6.018,2.856-8.809,2.252S-.078,151.219.005,148.594Z" transform="translate(382.149 45.727) rotate(22)" fill="url(#linear-gradient-2)"/>
      <path id="Path_3601" data-name="Path 3601" d="M.005,148.594c.083-2.625,4.325-6.564,4.325-6.564L134.9,6.511s2.074-2.153,4.536-4.7,9.311-3.064,10.907,2.889c.462,1.723.6,2.132,1.167,4.631,3.254,14.433,6.263,38.181-1.855,57.911-12.991,31.573-34.5,39.513-52.362,47.71-24.37,11.185-59.725,25.881-84.886,36.163-2.653,1.084-6.018,2.856-8.809,2.252S-.078,151.219.005,148.594Z" transform="matrix(0.695, 0.719, -0.719, 0.695, 433.258, 106.069)" fill="url(#linear-gradient-2)"/>
      <path id="Path_3602" data-name="Path 3602" d="M.005,4.892C.088,7.516,4.33,11.456,4.33,11.456L134.9,146.974s2.074,2.154,4.536,4.7,9.311,3.064,10.907-2.889c.462-1.723.6-2.132,1.167-4.631,3.254-14.433,6.263-38.181-1.855-57.911-12.991-31.572-34.5-39.513-52.362-47.709C72.926,27.353,37.571,12.657,12.411,2.374,9.757,1.29,6.393-.482,3.6.122S-.077,2.267.005,4.892Z" transform="matrix(-0.695, 0.719, -0.719, -0.695, 217.983, 212.688)" fill="url(#linear-gradient)"/>
      <path id="Path_3603" data-name="Path 3603" d="M.005,4.892C.088,7.516,4.33,11.456,4.33,11.456L134.9,146.974s2.074,2.154,4.536,4.7,9.311,3.064,10.907-2.889c.462-1.723.6-2.132,1.167-4.631,3.254-14.433,6.263-38.181-1.855-57.911-12.991-31.572-34.5-39.513-52.362-47.709C72.926,27.353,37.571,12.657,12.411,2.374,9.757,1.29,6.393-.482,3.6.122S-.077,2.267.005,4.892Z" transform="matrix(-0.292, 0.956, -0.956, -0.292, 230.849, 232.723)" fill="url(#linear-gradient)"/>
      <path id="Path_3604" data-name="Path 3604" d="M.005,148.594c.083-2.625,4.325-6.565,4.325-6.565L134.9,6.511s2.074-2.154,4.536-4.7S148.75-1.257,150.347,4.7c.462,1.723.6,2.132,1.167,4.631,3.254,14.433,6.263,38.181-1.855,57.911-12.991,31.573-34.5,39.513-52.362,47.71-24.37,11.185-59.725,25.881-84.886,36.163-2.653,1.084-6.018,2.856-8.809,2.252S-.078,151.219.005,148.594Z" transform="translate(456.766 187.847) rotate(73)" fill="url(#linear-gradient-2)"/>
      <path id="Path_3605" data-name="Path 3605" d="M.005,148.594c.083-2.625,4.325-6.565,4.325-6.565L134.9,6.511s2.074-2.154,4.536-4.7S148.75-1.257,150.347,4.7c.462,1.723.6,2.132,1.167,4.631,3.254,14.433,6.263,38.181-1.855,57.911-12.991,31.573-34.5,39.513-52.362,47.71-24.37,11.185-59.725,25.881-84.886,36.163-2.653,1.084-6.018,2.856-8.809,2.252S-.078,151.219.005,148.594Z" transform="matrix(-0.208, 0.978, -0.978, -0.208, 440.461, 279.104)" fill="url(#linear-gradient-2)"/>
      <path id="Path_3606" data-name="Path 3606" d="M.005,4.892C.088,7.516,4.33,11.456,4.33,11.456L134.9,146.975s2.074,2.154,4.536,4.7,9.311,3.064,10.907-2.889c.462-1.723.6-2.132,1.167-4.631,3.254-14.433,6.263-38.181-1.855-57.911-12.991-31.573-34.5-39.513-52.362-47.71C72.926,27.353,37.571,12.657,12.411,2.374,9.757,1.29,6.393-.482,3.6.122S-.078,2.267.005,4.892Z" transform="matrix(0.208, 0.978, -0.978, 0.208, 250.506, 247.192)" fill="url(#linear-gradient)"/>
    </g>
  </g>
</svg>